<?xml version="1.0" encoding="UTF-8"?>
<svg width="433px" height="118px" viewBox="0 0 433 118" version="1.1" xmlns="http://www.w3.org/2000/svg" xmlns:xlink="http://www.w3.org/1999/xlink">
    <!-- Generator: Sketch 51.3 (57544) - http://www.bohemiancoding.com/sketch -->
    <title>FGI_logo-light</title>
    <desc>Created with Sketch.</desc>
    <defs>
        <path d="M46.161,1.354 L5.48,25.139 C3.006,26.586 0.968,30.118 0.951,32.984 L0.693,80.11 C0.678,82.977 2.693,86.495 5.172,87.926 L45.528,111.225 C48.007,112.657 52.062,112.645 54.538,111.195 L95.219,87.411 C97.695,85.966 99.734,82.432 99.75,79.565 L100.007,32.442 C100.023,29.572 98.008,26.055 95.528,24.623 L55.172,1.324 C53.942,0.614 52.323,0.26 50.703,0.26 C49.057,0.26 47.409,0.625 46.161,1.354 Z" id="path-1"></path>
        <path d="M46.161,1.354 L5.48,25.139 C3.006,26.586 0.968,30.118 0.951,32.984 L0.693,80.11 C0.678,82.977 2.693,86.495 5.172,87.926 L45.528,111.225 C48.007,112.657 52.062,112.645 54.538,111.195 L95.219,87.411 C97.695,85.966 99.734,82.432 99.75,79.565 L100.007,32.442 C100.023,29.572 98.008,26.055 95.528,24.623 L55.172,1.324 C53.942,0.614 52.323,0.26 50.703,0.26 C49.057,0.26 47.409,0.625 46.161,1.354 Z" id="path-3"></path>
        <path d="M46.161,1.354 L5.48,25.139 C3.006,26.586 0.968,30.118 0.951,32.984 L0.693,80.11 C0.678,82.977 2.693,86.495 5.172,87.926 L45.528,111.225 C48.007,112.657 52.062,112.645 54.538,111.195 L95.219,87.411 C97.695,85.966 99.734,82.432 99.75,79.565 L100.007,32.442 C100.023,29.572 98.008,26.055 95.528,24.623 L55.172,1.324 C53.942,0.614 52.323,0.26 50.703,0.26 C49.057,0.26 47.409,0.625 46.161,1.354 Z" id="path-5"></path>
        <path d="M46.161,1.354 L5.48,25.139 C3.006,26.586 0.968,30.118 0.951,32.984 L0.693,80.11 C0.678,82.977 2.693,86.495 5.172,87.926 L45.528,111.225 C48.007,112.657 52.062,112.645 54.538,111.195 L95.219,87.411 C97.695,85.966 99.734,82.432 99.75,79.565 L100.007,32.442 C100.023,29.572 98.008,26.055 95.528,24.623 L55.172,1.324 C53.942,0.614 52.323,0.26 50.703,0.26 C49.057,0.26 47.409,0.625 46.161,1.354 Z" id="path-7"></path>
        <path d="M46.161,1.354 L5.48,25.139 C3.006,26.586 0.968,30.118 0.951,32.984 L0.693,80.11 C0.678,82.977 2.693,86.495 5.172,87.926 L45.528,111.225 C48.007,112.657 52.062,112.645 54.538,111.195 L95.219,87.411 C97.695,85.966 99.734,82.432 99.75,79.565 L100.007,32.442 C100.023,29.572 98.008,26.055 95.528,24.623 L55.172,1.324 C53.942,0.614 52.323,0.26 50.703,0.26 C49.057,0.26 47.409,0.625 46.161,1.354 Z" id="path-9"></path>
        <path d="M46.161,1.354 L5.48,25.139 C3.006,26.586 0.968,30.118 0.951,32.984 L0.693,80.11 C0.678,82.977 2.693,86.495 5.172,87.926 L45.528,111.225 C48.007,112.657 52.062,112.645 54.538,111.195 L95.219,87.411 C97.695,85.966 99.734,82.432 99.75,79.565 L100.007,32.442 C100.023,29.572 98.008,26.055 95.528,24.623 L55.172,1.324 C53.942,0.614 52.323,0.26 50.703,0.26 C49.057,0.26 47.409,0.625 46.161,1.354 Z" id="path-11"></path>
        <path d="M50.103,0 C48.491,0.015 46.885,0.38 45.662,1.095 L4.98,24.879 C2.507,26.327 0.467,29.858 0.451,32.725 L0.193,79.85 C0.178,82.717 2.193,86.235 4.672,87.667 L45.028,110.966 C47.508,112.397 51.562,112.385 54.038,110.936 L94.719,87.151 C97.195,85.706 99.234,82.172 99.249,79.306 L99.507,32.183 C99.523,29.313 97.507,25.795 95.028,24.364 L54.673,1.065 C53.467,0.369 51.89,0.015 50.303,0 L50.103,0 Z" id="path-13"></path>
        <radialGradient cx="50.0001003%" cy="49.9999948%" fx="50.0001003%" fy="49.9999948%" r="53.2975024%" gradientTransform="translate(0.500001,0.500000),scale(1.000000,0.886488),translate(-0.500001,-0.500000)" id="radialGradient-15">
            <stop stop-color="#CDDDE6" offset="0%"></stop>
            <stop stop-color="#AADDD6" offset="100%"></stop>
        </radialGradient>
    </defs>
    <g id="FGI_logo-light" stroke="none" stroke-width="1" fill="none" fill-rule="evenodd">
        <g id="Group-19" transform="translate(5.000000, 3.000000)">
            <g id="Group-3">
                <mask id="mask-2" fill="white">
                    <use xlink:href="#path-1"></use>
                </mask>
                <g id="Clip-2"></g>
                <polygon id="Fill-1" fill="#8AD3CC" mask="url(#mask-2)" points="-11.1909 92.3079 49.8501 56.2199 49.8501 127.4879"></polygon>
            </g>
            <g id="Group-6">
                <mask id="mask-4" fill="white">
                    <use xlink:href="#path-3"></use>
                </mask>
                <g id="Clip-5"></g>
                <polygon id="Fill-4" fill="#9ADBD2" mask="url(#mask-4)" points="110.8911 92.3079 49.8501 56.2199 49.8501 127.4879"></polygon>
            </g>
            <g id="Group-9">
                <mask id="mask-6" fill="white">
                    <use xlink:href="#path-5"></use>
                </mask>
                <g id="Clip-8"></g>
                <polygon id="Fill-7" fill="#C5E9E5" mask="url(#mask-6)" points="-11.1909 21.3079 49.8501 -14.7801 49.8501 56.4879"></polygon>
            </g>
            <g id="Group-12">
                <mask id="mask-8" fill="white">
                    <use xlink:href="#path-7"></use>
                </mask>
                <g id="Clip-11"></g>
                <polygon id="Fill-10" fill="#C5E9E5" mask="url(#mask-8)" points="110.8911 21.3079 49.8501 -14.7801 49.8501 56.4879"></polygon>
            </g>
            <g id="Group-15">
                <mask id="mask-10" fill="white">
                    <use xlink:href="#path-9"></use>
                </mask>
                <g id="Clip-14"></g>
                <polygon id="Fill-13" fill="#AFE2DC" mask="url(#mask-10)" points="49.8091 56.3079 110.8501 20.2199 110.8501 92.4879"></polygon>
            </g>
            <g id="Group-18">
                <mask id="mask-12" fill="white">
                    <use xlink:href="#path-11"></use>
                </mask>
                <g id="Clip-17"></g>
                <polygon id="Fill-16" fill="#9ADBD2" mask="url(#mask-12)" points="49.8911 56.3079 -11.1499 20.2199 -11.1499 92.4879"></polygon>
            </g>
        </g>
        <g id="Foro-de-Gobernza-de" transform="translate(6.000000, 3.000000)">
            <g id="Gliph" fill-rule="evenodd" stroke-width="1">
                <g id="Group">
                    <mask id="mask-14" fill="white">
                        <use xlink:href="#path-13"></use>
                    </mask>
                    <g id="Clip-21"></g>
                    <path d="M50.103,0 C48.491,0.015 46.885,0.38 45.662,1.095 L4.98,24.879 C2.507,26.327 0.467,29.858 0.451,32.725 L0.193,79.85 C0.178,82.717 2.193,86.235 4.672,87.667 L45.028,110.966 C47.508,112.397 51.562,112.385 54.038,110.936 L94.719,87.151 C97.195,85.706 99.234,82.172 99.249,79.306 L99.507,32.183 C99.523,29.313 97.507,25.795 95.028,24.364 L54.673,1.065 C53.467,0.369 51.89,0.015 50.303,0 L50.103,0 Z" id="fill" fill="url(#radialGradient-15)" mask="url(#mask-14)"></path>
                    <path d="M26.3460793,52 L22,52 L22,40 L32.8953684,40 C36.942939,36.2713567 42.5307517,34 49,34 C60.1628845,34 65.3700781,38.8931586 65.5742668,39.1074596 L60.5742668,47.0950565 C60.2269711,46.8564789 56.1830993,43.7266414 50,43.9844961 C40.8170465,43.7266414 37.0821711,49.5658691 37,55.9658915 C37.0821711,64.2784529 42.8355119,69.2035912 50,68.9457364 C54.7748676,69.2035912 58.5097429,66.041774 59,65.9503876 L59,62.9550388 L52,62.9550388 L52,53.9689922 L68,53.9689922 L68,77.9317829 L59,77.9317829 L59,76.9333333 C59.0607901,76.0744631 59.1220176,75.1624004 59,74.9364341 C58.9995627,75.1624004 54.7748676,78.9302326 47,78.9302326 C36.2862141,78.9302326 26,70.6020872 26,55.9658915 C26,54.6098118 26.1180067,53.2845773 26.3460793,52 Z" id="g" fill="#3FA9F5" mask="url(#mask-14)"></path>
                    <path d="M37.9059308,51 C37.3123449,52.5408889 37.0222511,54.2328294 37,55.9658915 C37.0143445,57.417008 37.2015145,58.7648949 37.5388469,60 L27,60 L27,69 L27,78 L17,78 L17,35 L43,35 L43,44 L27,44 L27,51 L37.9059308,51 Z" id="f" fill="#FCEE21" mask="url(#mask-14)"></path>
                    <g id="i" mask="url(#mask-14)" fill="#F94654">
                        <g transform="translate(67.000000, 34.000000)">
                            <polygon id="Fill-261" points="0.85 11.844 11.85 11.844 11.85 0.844 0.85 0.844"></polygon>
                            <polygon id="Fill-262" points="0.85 43.844 11.85 43.844 11.85 12.844 0.85 12.844"></polygon>
                        </g>
                    </g>
                </g>
            </g>
            <text font-family="HelveticaNeue-Bold, Helvetica Neue" font-size="29.9997" font-weight="bold" line-spacing="31" letter-spacing="0.299997002" fill="#FFFFFF">
                <tspan x="118" y="34">Foro </tspan>
                <tspan x="222.368956" y="41.7401167" font-family="Museo300-Regular, Museo" font-weight="normal">de</tspan>
                <tspan x="228.098899" y="34"> </tspan>
                <tspan x="118" y="65">Gobernza</tspan>
                <tspan x="277.478405" y="64.3403691" font-family="HelveticaNeue-Light, Helvetica Neue" font-weight="300"> de</tspan>
                <tspan x="332.407856" y="73.2298518"></tspan>
                <tspan x="118" y="96">Internet</tspan>
                <tspan x="250.238678" y="95.3403691" font-family="HelveticaNeue-Light, Helvetica Neue" font-weight="300">, Venezuela</tspan>
            </text>
        </g>
    </g>
</svg>