<?xml version="1.0" encoding="UTF-8"?>
<svg width="420px" height="120px" viewBox="0 0 420 120" version="1.1" xmlns="http://www.w3.org/2000/svg" xmlns:xlink="http://www.w3.org/1999/xlink">
    <!-- Generator: Sketch 51.3 (57544) - http://www.bohemiancoding.com/sketch -->
    <title>igfve-logo-dark</title>
    <desc>Created with Sketch.</desc>
    <defs>
        <radialGradient cx="50.0001003%" cy="49.9999948%" fx="50.0001003%" fy="49.9999948%" r="56.4023544%" gradientTransform="translate(0.500001,0.500000),scale(1.000000,0.886488),rotate(90.000000),translate(-0.500001,-0.500000)" id="radialGradient-1">
            <stop stop-color="#CDDDE6" offset="0%"></stop>
            <stop stop-color="#A6DAD5" offset="72.4761111%"></stop>
            <stop stop-color="#9CD9D1" offset="100%"></stop>
        </radialGradient>
    </defs>
    <g id="igfve-logo-dark" stroke="none" stroke-width="1" fill="none" fill-rule="evenodd">
        <g id="Foro-de-Gobernza-dark" transform="translate(1.000000, 4.000000)">
            <g id="Gliph" transform="translate(5.000000, 0.000000)">
                <path d="M45.662,1.095 L4.98,24.879 C2.507,26.327 0.467,29.858 0.451,32.725 L0.193,79.85 C0.178,82.717 2.193,86.235 4.672,87.667 L45.028,110.966 C47.508,112.397 51.562,112.385 54.038,110.936 L94.719,87.151 C97.195,85.706 99.234,82.172 99.249,79.306 L99.507,32.183 C99.523,29.313 97.507,25.795 95.028,24.364 L54.673,1.065 C53.467,0.369 51.89,0.015 50.303,0 C48.491,0.015 46.885,0.38 45.662,1.095 Z" id="fill" fill="url(#radialGradient-1)" fill-rule="evenodd"></path>
                <g id="Group" stroke-width="1" fill-rule="evenodd" transform="translate(8.000000, 34.000000)">
                    <polygon id="F" fill="#F94654" points="46.04 44 46.04 1.1 72.32 1.1 72.32 10.1 56.54 10.1 56.54 19.1 69.62 19.1 69.62 28.1 56.54 28.1 56.54 44"></polygon>
                    <path d="M48.5742668,5.17567663 L43.5742668,13.0950565 C43.2269711,12.8564789 39.1830993,9.72664138 33,9.98449612 C23.8170465,9.72664138 20.0821711,15.5658691 20,21.9658915 C20.0821711,30.2784529 25.8355119,35.2035912 33,34.9457364 C37.7748676,35.2035912 41.5097429,32.041774 42,31.9503876 L42,28.9550388 L35,28.9550388 L35,19.9689922 L51,19.9689922 L51,44 L42,44 L42,42.9333333 C42.0607901,42.0744631 42.1220176,41.1624004 42,40.9364341 C41.9995627,41.1624004 37.7748676,44.9302326 30,44.9302326 C19.2862141,44.9302326 9,36.6020872 9,21.9658915 C9,9.72664138 18.612712,0 32,0 C43.1628845,0 48.3700781,4.96137569 48.5742668,5.17567663 Z" id="Fill-60" fill="#54AFF0"></path>
                    <g id="i" transform="translate(0.000000, 1.000000)" fill="#FFF235">
                        <polygon id="Fill-261" points="0 11 11 11 11 0 0 0"></polygon>
                        <polygon id="Fill-262" points="0 43 11 43 11 12 0 12"></polygon>
                    </g>
                </g>
                <text id="VE" font-family="Museo700-Regular, Museo" font-size="22" font-weight="bold" letter-spacing="-1.46666682" fill="#FFFFFF">
                    <tspan x="69.5846668" y="83">VE</tspan>
                </text>
            </g>
            <text id="Foro-de-Gobernanza-d" font-family="MuseoSans-700, Museo Sans" font-size="29.9997" font-weight="500" line-spacing="31" letter-spacing="0.299997" fill="#4D4D4D">
                <tspan x="131" y="33">F</tspan>
                <tspan x="149.329817" y="33" font-family="Museo700-Regular, Museo" font-weight="bold">oro</tspan>
                <tspan x="199.399316" y="33.5699943" font-family="Museo300-Regular, Museo" font-weight="normal"> </tspan>
                <tspan x="207.859231" y="33.8399916" font-family="Museo100-Regular, Museo" font-weight="300">de</tspan>
                <tspan x="241.96889" y="33.5699943" font-family="Museo300-Regular, Museo" font-weight="normal"> </tspan>
                <tspan x="252.01879" y="34.0597294" font-family="Museo700-Regular, Museo" font-weight="bold"></tspan>
                <tspan x="133.159978" y="64" font-family="Museo700-Regular, Museo" font-weight="bold">Gobernanza </tspan>
                <tspan x="320.688103" y="64.8399916" font-family="Museo100-Regular, Museo" font-weight="300">de</tspan>
                <tspan x="356.387746" y="65.0597294" font-family="Museo700-Regular, Museo" font-weight="bold"></tspan>
                <tspan x="133.159978" y="95" font-family="Museo700-Regular, Museo" font-weight="bold">Internet.</tspan>
                <tspan x="260.568704" y="95.5699943" font-family="Museo300-Regular, Museo" font-weight="normal"> Venezuela</tspan>
            </text>
        </g>
    </g>
</svg>